<svg width="21" height="21" viewBox="0 0 21 21" fill="none" xmlns="http://www.w3.org/2000/svg">
<g clip-path="url(#clip0_8_82)">
<path d="M10.7366 0.502808C16.3936 0.502808 20.9766 4.97981 20.9766 10.5028C20.9766 16.0258 16.3926 20.5028 10.7366 20.5028C7.54556 20.5028 4.59456 19.0658 2.66656 16.6568C2.61252 16.5895 2.57254 16.5121 2.54902 16.429C2.5255 16.346 2.5189 16.2591 2.52963 16.1735C2.54036 16.0878 2.56819 16.0052 2.61147 15.9306C2.65475 15.8559 2.71259 15.7907 2.78156 15.7388C2.92221 15.6318 3.09899 15.5838 3.27446 15.6048C3.44992 15.6259 3.61028 15.7145 3.72156 15.8518C4.56499 16.9 5.63365 17.7449 6.84824 18.3236C8.06283 18.9023 9.39215 19.2001 10.7376 19.1948C15.6526 19.1948 19.6376 15.3028 19.6376 10.5028C19.6376 5.70281 15.6526 1.81081 10.7376 1.81081C9.41137 1.80571 8.10058 2.09504 6.89976 2.65792C5.69894 3.22081 4.63802 4.04321 3.79356 5.06581C3.68052 5.20185 3.51892 5.28849 3.34305 5.30735C3.16717 5.32621 2.99088 5.27579 2.85156 5.16681C2.78319 5.11404 2.72613 5.04805 2.68377 4.97278C2.64142 4.8975 2.61464 4.81448 2.60504 4.72864C2.59543 4.64281 2.60318 4.55592 2.62784 4.47314C2.65249 4.39036 2.69355 4.31339 2.74856 4.24681C4.67956 1.89681 7.59056 0.502808 10.7366 0.502808ZM11.2816 7.36481L13.9886 10.0718C14.2506 10.3338 14.2556 10.7518 13.9996 11.0078L11.3566 13.6528C11.2944 13.7137 11.2208 13.7617 11.14 13.7941C11.0592 13.8265 10.9728 13.8426 10.8858 13.8416C10.7987 13.8406 10.7128 13.8224 10.6328 13.7881C10.5528 13.7539 10.4803 13.7041 10.4196 13.6418C10.3573 13.581 10.3077 13.5085 10.2735 13.4284C10.2393 13.3484 10.2212 13.2624 10.2203 13.1754C10.2193 13.0884 10.2356 13.002 10.2681 12.9212C10.3005 12.8405 10.3486 12.7669 10.4096 12.7048L11.9566 11.1568L1.64656 11.1578C1.55954 11.1589 1.47317 11.1428 1.39238 11.1104C1.31159 11.078 1.23798 11.0301 1.17575 10.9692C1.11352 10.9084 1.0639 10.8359 1.02972 10.7559C0.995539 10.6758 0.977476 10.5898 0.976562 10.5028C0.976562 10.1418 1.27656 9.84881 1.64656 9.84881H11.9146L10.3566 8.28981C10.2943 8.22898 10.2447 8.15648 10.2105 8.07644C10.1763 7.99641 10.1582 7.91041 10.1573 7.82338C10.1563 7.73635 10.1726 7.64999 10.2051 7.56924C10.2375 7.4885 10.2856 7.41495 10.3466 7.35281C10.4721 7.23048 10.6411 7.16293 10.8163 7.165C10.9916 7.16706 11.1589 7.23956 11.2816 7.36481Z" fill="#FFFAF5"/>
</g>
<defs>
<clipPath id="clip0_8_82">
<rect width="20" height="20" fill="white" transform="translate(0.976562 0.502808)"/>
</clipPath>
</defs>
</svg>
