<svg width="303" height="55" viewBox="0 0 303 55" fill="none" xmlns="http://www.w3.org/2000/svg">
<path d="M18.7278 6.80828C21.3746 6.42696 24.1784 9.3205 24.9859 13.3131C25.7934 17.2833 24.3354 20.8274 21.6886 21.2311C19.0642 21.6349 16.238 18.7413 15.408 14.7487C14.5781 10.7785 16.081 7.23446 18.7278 6.80828ZM34.7656 6.80828C37.4349 7.23446 38.9153 10.7785 38.1302 14.7487C37.2778 18.7413 34.474 21.6349 31.8272 21.2311C29.158 20.8274 27.7 17.2833 28.5299 13.3131C29.3374 9.3205 32.1412 6.42696 34.7656 6.80828ZM6.72742 17.1263C9.28451 16.0272 12.7612 18.0236 14.5781 21.5003C16.2828 25.0443 15.6996 28.7678 13.165 29.8669C10.6303 30.966 7.17604 28.9921 5.40402 25.4705C3.63201 21.9489 4.26006 18.203 6.72742 17.1263ZM47.1024 17.1263C49.5698 18.203 50.1978 21.9489 48.4258 25.4705C46.6538 28.9921 43.1995 30.966 40.6648 29.8669C38.1302 28.7678 37.547 25.0443 39.2517 21.5003C41.0686 18.0236 44.5453 16.0272 47.1024 17.1263ZM43.3565 41.3065C43.4462 43.4149 41.8312 45.7477 39.9022 46.6225C35.8871 48.4618 31.1319 44.6486 26.6682 44.6486C22.2045 44.6486 17.4044 48.6188 13.4566 46.6225C11.2135 45.5234 9.66583 42.6074 9.95742 40.1849C10.3612 36.8428 14.3762 35.0483 16.7539 32.6034C19.9166 29.4407 22.1596 23.4966 26.6682 23.4966C31.1543 23.4966 33.5319 29.351 36.5601 32.6034C39.0499 35.3399 43.1995 37.6503 43.3565 41.3065Z" fill="#FD772B"/>
<path d="M229.362 22.8092C229.96 21.8761 230.786 21.1224 231.838 20.5482C232.891 19.974 234.123 19.6869 235.535 19.6869C237.186 19.6869 238.681 20.1056 240.021 20.943C241.361 21.7804 242.414 22.9767 243.179 24.5319C243.969 26.0871 244.364 27.8935 244.364 29.9511C244.364 32.0087 243.969 33.8271 243.179 35.4062C242.414 36.9614 241.361 38.1697 240.021 39.031C238.681 39.8684 237.186 40.2871 235.535 40.2871C234.147 40.2871 232.915 40 231.838 39.4258C230.786 38.8516 229.96 38.1099 229.362 37.2007V49.5464H223.225V19.974H229.362V22.8092ZM238.119 29.9511C238.119 28.4199 237.688 27.2236 236.827 26.3622C235.99 25.477 234.949 25.0343 233.705 25.0343C232.484 25.0343 231.444 25.477 230.582 26.3622C229.745 27.2475 229.326 28.4557 229.326 29.987C229.326 31.5183 229.745 32.7265 230.582 33.6118C231.444 34.497 232.484 34.9397 233.705 34.9397C234.925 34.9397 235.966 34.497 236.827 33.6118C237.688 32.7026 238.119 31.4824 238.119 29.9511ZM266.461 29.664C266.461 30.2382 266.425 30.8364 266.353 31.4584H252.464C252.56 32.7026 252.955 33.6596 253.649 34.3296C254.366 34.9756 255.24 35.2986 256.268 35.2986C257.8 35.2986 258.864 34.6526 259.463 33.3606H265.994C265.659 34.6765 265.049 35.8608 264.164 36.9136C263.303 37.9663 262.214 38.7917 260.898 39.3899C259.582 39.988 258.111 40.2871 256.484 40.2871C254.522 40.2871 252.775 39.8684 251.244 39.031C249.713 38.1936 248.516 36.9973 247.655 35.4421C246.794 33.8869 246.363 32.0686 246.363 29.987C246.363 27.9054 246.782 26.0871 247.619 24.5319C248.481 22.9767 249.677 21.7804 251.208 20.943C252.739 20.1056 254.498 19.6869 256.484 19.6869C258.422 19.6869 260.144 20.0936 261.652 20.9071C263.159 21.7206 264.331 22.881 265.169 24.3883C266.03 25.8957 266.461 27.6542 266.461 29.664ZM260.18 28.049C260.18 26.9963 259.821 26.1589 259.104 25.5368C258.386 24.9147 257.489 24.6037 256.412 24.6037C255.383 24.6037 254.51 24.9027 253.792 25.5009C253.098 26.099 252.668 26.9484 252.5 28.049H260.18ZM280.86 34.7961V40H277.738C275.512 40 273.778 39.4617 272.534 38.385C271.289 37.2844 270.667 35.5019 270.667 33.0376V25.0702H268.227V19.974H270.667V15.0931H276.804V19.974H280.824V25.0702H276.804V33.1093C276.804 33.7075 276.948 34.1381 277.235 34.4013C277.522 34.6645 278.001 34.7961 278.671 34.7961H280.86ZM292.425 40.2871C290.678 40.2871 289.123 39.988 287.759 39.3899C286.396 38.7917 285.319 37.9783 284.529 36.9494C283.74 35.8967 283.297 34.7243 283.202 33.4323H289.267C289.339 34.1262 289.662 34.6884 290.236 35.1191C290.81 35.5498 291.516 35.7651 292.353 35.7651C293.119 35.7651 293.705 35.6216 294.112 35.3344C294.542 35.0234 294.758 34.6286 294.758 34.1501C294.758 33.5759 294.459 33.1572 293.861 32.894C293.262 32.6069 292.293 32.2959 290.954 31.9609C289.518 31.6259 288.322 31.279 287.365 30.9201C286.408 30.5373 285.582 29.9511 284.888 29.1616C284.195 28.3481 283.848 27.2594 283.848 25.8957C283.848 24.7472 284.159 23.7064 284.781 22.7733C285.427 21.8163 286.36 21.0626 287.58 20.5123C288.824 19.962 290.296 19.6869 291.994 19.6869C294.507 19.6869 296.48 20.309 297.916 21.5531C299.376 22.7973 300.213 24.4481 300.428 26.5058H294.758C294.662 25.8119 294.351 25.2616 293.825 24.8549C293.322 24.4481 292.652 24.2448 291.815 24.2448C291.097 24.2448 290.547 24.3883 290.164 24.6754C289.781 24.9386 289.59 25.3095 289.59 25.788C289.59 26.3622 289.889 26.7929 290.487 27.08C291.109 27.3671 292.066 27.6542 293.358 27.9413C294.842 28.3241 296.05 28.707 296.983 29.0898C297.916 29.4487 298.73 30.0468 299.423 30.8842C300.141 31.6977 300.512 32.7983 300.536 34.186C300.536 35.3584 300.201 36.4111 299.531 37.3442C298.885 38.2534 297.94 38.9712 296.696 39.4976C295.476 40.0239 294.052 40.2871 292.425 40.2871Z" fill="#8C62EC"/>
<path d="M93.7663 19.8376C96.2546 19.8376 98.2285 20.5913 99.6879 22.0986C101.171 23.606 101.913 25.6995 101.913 28.3792V40.079H95.8119V29.2046C95.8119 27.9126 95.465 26.9197 94.7712 26.2259C94.1012 25.5081 93.1681 25.1492 91.9718 25.1492C90.7755 25.1492 89.8305 25.5081 89.1366 26.2259C88.4667 26.9197 88.1317 27.9126 88.1317 29.2046V40.079H82.0306V29.2046C82.0306 27.9126 81.6837 26.9197 80.9898 26.2259C80.3199 25.5081 79.3868 25.1492 78.1905 25.1492C76.9942 25.1492 76.0491 25.5081 75.3553 26.2259C74.6854 26.9197 74.3504 27.9126 74.3504 29.2046V40.079H68.2134V20.053H74.3504V22.5652C74.9725 21.7278 75.7859 21.0698 76.7908 20.5913C77.7957 20.0889 78.9322 19.8376 80.2003 19.8376C81.7076 19.8376 83.0475 20.1606 84.2198 20.8066C85.4161 21.4526 86.3492 22.3738 87.0192 23.5701C87.713 22.4695 88.6581 21.5723 89.8544 20.8784C91.0507 20.1846 92.3547 19.8376 93.7663 19.8376ZM104.985 30.0301C104.985 27.9725 105.368 26.1661 106.133 24.6109C106.923 23.0557 107.988 21.8594 109.327 21.022C110.667 20.1846 112.163 19.7659 113.814 19.7659C115.225 19.7659 116.457 20.053 117.51 20.6272C118.587 21.2014 119.412 21.9551 119.986 22.8882V20.053H126.123V40.079H119.986V37.2438C119.388 38.1769 118.551 38.9305 117.474 39.5048C116.422 40.079 115.189 40.3661 113.778 40.3661C112.151 40.3661 110.667 39.9474 109.327 39.11C107.988 38.2486 106.923 37.0404 106.133 35.4852C105.368 33.9061 104.985 32.0877 104.985 30.0301ZM119.986 30.066C119.986 28.5347 119.556 27.3265 118.694 26.4412C117.857 25.5559 116.828 25.1133 115.608 25.1133C114.388 25.1133 113.347 25.5559 112.486 26.4412C111.648 27.3025 111.23 28.4988 111.23 30.0301C111.23 31.5614 111.648 32.7816 112.486 33.6908C113.347 34.576 114.388 35.0186 115.608 35.0186C116.828 35.0186 117.857 34.576 118.694 33.6908C119.556 32.8055 119.986 31.5972 119.986 30.066ZM136.7 23.3906C137.418 22.2901 138.315 21.4287 139.392 20.8066C140.469 20.1606 141.665 19.8376 142.981 19.8376V26.3335H141.294C139.763 26.3335 138.614 26.6685 137.849 27.3384C137.083 27.9844 136.7 29.1329 136.7 30.7838V40.079H130.563V20.053H136.7V23.3906ZM149.001 17.9714C147.924 17.9714 147.039 17.6604 146.345 17.0383C145.675 16.3923 145.34 15.6028 145.34 14.6696C145.34 13.7126 145.675 12.9231 146.345 12.301C147.039 11.655 147.924 11.332 149.001 11.332C150.053 11.332 150.915 11.655 151.585 12.301C152.279 12.9231 152.625 13.7126 152.625 14.6696C152.625 15.6028 152.279 16.3923 151.585 17.0383C150.915 17.6604 150.053 17.9714 149.001 17.9714ZM152.051 20.053V40.079H145.914V20.053H152.051ZM155.278 30.0301C155.278 27.9725 155.661 26.1661 156.427 24.6109C157.216 23.0557 158.281 21.8594 159.621 21.022C160.961 20.1846 162.456 19.7659 164.107 19.7659C165.519 19.7659 166.751 20.053 167.804 20.6272C168.88 21.2014 169.706 21.9551 170.28 22.8882V20.053H176.417V40.079H170.28V37.2438C169.682 38.1769 168.844 38.9305 167.768 39.5048C166.715 40.079 165.483 40.3661 164.071 40.3661C162.444 40.3661 160.961 39.9474 159.621 39.11C158.281 38.2486 157.216 37.0404 156.427 35.4852C155.661 33.9061 155.278 32.0877 155.278 30.0301ZM170.28 30.066C170.28 28.5347 169.849 27.3265 168.988 26.4412C168.151 25.5559 167.122 25.1133 165.902 25.1133C164.681 25.1133 163.641 25.5559 162.779 26.4412C161.942 27.3025 161.523 28.4988 161.523 30.0301C161.523 31.5614 161.942 32.7816 162.779 33.6908C163.641 34.576 164.681 35.0186 165.902 35.0186C167.122 35.0186 168.151 34.576 168.988 33.6908C169.849 32.8055 170.28 31.5972 170.28 30.066ZM193.059 19.8376C195.404 19.8376 197.27 20.6033 198.658 22.1345C200.069 23.6419 200.775 25.7234 200.775 28.3792V40.079H194.674V29.2046C194.674 27.8648 194.327 26.824 193.633 26.0823C192.939 25.3406 192.006 24.9698 190.834 24.9698C189.662 24.9698 188.728 25.3406 188.035 26.0823C187.341 26.824 186.994 27.8648 186.994 29.2046V40.079H180.857V20.053H186.994V22.7088C187.616 21.8235 188.453 21.1296 189.506 20.6272C190.559 20.1008 191.743 19.8376 193.059 19.8376ZM214.156 40.3661C212.194 40.3661 210.423 39.9474 208.844 39.11C207.289 38.2726 206.057 37.0763 205.147 35.5211C204.262 33.9659 203.82 32.1475 203.82 30.066C203.82 28.0084 204.274 26.2019 205.183 24.6468C206.093 23.0676 207.337 21.8594 208.916 21.022C210.495 20.1846 212.265 19.7659 214.227 19.7659C216.189 19.7659 217.96 20.1846 219.539 21.022C221.118 21.8594 222.362 23.0676 223.271 24.6468C224.181 26.2019 224.635 28.0084 224.635 30.066C224.635 32.1236 224.169 33.942 223.235 35.5211C222.326 37.0763 221.07 38.2726 219.467 39.11C217.888 39.9474 216.117 40.3661 214.156 40.3661ZM214.156 35.0545C215.328 35.0545 216.321 34.6239 217.134 33.7625C217.972 32.9012 218.39 31.669 218.39 30.066C218.39 28.4629 217.984 27.2308 217.17 26.3694C216.381 25.5081 215.4 25.0774 214.227 25.0774C213.031 25.0774 212.038 25.5081 211.249 26.3694C210.459 27.2068 210.064 28.439 210.064 30.066C210.064 31.669 210.447 32.9012 211.213 33.7625C212.002 34.6239 212.983 35.0545 214.156 35.0545Z" fill="#0F012F"/>
</svg>
