<svg width="32" height="32" viewBox="0 0 32 32" fill="none" xmlns="http://www.w3.org/2000/svg">
<path d="M15.0673 8.10014C15.3784 7.92236 15.6562 7.95036 15.9006 8.18414C16.1451 8.41792 16.1784 8.68992 16.0006 9.00014L12.7673 14.6668L28.0006 14.6668C28.3784 14.6668 28.6953 14.7948 28.9513 15.0508C29.2073 15.3068 29.3349 15.6233 29.334 16.0001C29.334 16.3779 29.206 16.6948 28.95 16.9508C28.694 17.2068 28.3775 17.3344 28.0006 17.3335L12.7673 17.3335L16.0006 23.0001C16.1784 23.3113 16.1451 23.5837 15.9006 23.8175C15.6562 24.0513 15.3784 24.0788 15.0673 23.9001L4.43398 17.1335C4.01176 16.8668 3.80065 16.489 3.80065 16.0001C3.80065 15.5113 4.01176 15.1335 4.43398 14.8668L15.0673 8.10014Z" fill="#FD772B"/>
</svg>
