<svg width="24" height="24" viewBox="0 0 24 24" fill="none" xmlns="http://www.w3.org/2000/svg">
<path d="M4 18C3.71667 18 3.479 17.904 3.287 17.712C3.095 17.52 2.99934 17.2827 3 17C3 16.7167 3.096 16.479 3.288 16.287C3.48 16.095 3.71734 15.9993 4 16H15C15.2833 16 15.521 16.096 15.713 16.288C15.905 16.48 16.0007 16.7173 16 17C16 17.2833 15.904 17.521 15.712 17.713C15.52 17.905 15.2827 18.0007 15 18H4ZM4 13C3.71667 13 3.479 12.904 3.287 12.712C3.095 12.52 2.99934 12.2827 3 12C3 11.7167 3.096 11.479 3.288 11.287C3.48 11.095 3.71734 10.9993 4 11H12C12.2833 11 12.521 11.096 12.713 11.288C12.905 11.48 13.0007 11.7173 13 12C13 12.2833 12.904 12.521 12.712 12.713C12.52 12.905 12.2827 13.0007 12 13H4ZM4 8C3.71667 8 3.479 7.904 3.287 7.712C3.095 7.52 2.99934 7.28267 3 7C3 6.71667 3.096 6.479 3.288 6.287C3.48 6.095 3.71734 5.99934 4 6H15C15.2833 6 15.521 6.096 15.713 6.288C15.905 6.48 16.0007 6.71734 16 7C16 7.28334 15.904 7.521 15.712 7.713C15.52 7.905 15.2827 8.00067 15 8H4ZM17.4 12L20.3 14.9C20.4833 15.0833 20.575 15.3167 20.575 15.6C20.575 15.8833 20.4833 16.1167 20.3 16.3C20.1167 16.4833 19.8833 16.575 19.6 16.575C19.3167 16.575 19.0833 16.4833 18.9 16.3L15.3 12.7C15.1 12.5 15 12.2667 15 12C15 11.7333 15.1 11.5 15.3 11.3L18.9 7.7C19.0833 7.51667 19.3167 7.425 19.6 7.425C19.8833 7.425 20.1167 7.51667 20.3 7.7C20.4833 7.88334 20.575 8.11667 20.575 8.4C20.575 8.68334 20.4833 8.91667 20.3 9.1L17.4 12Z" fill="#8C62EC"/>
</svg>
