<svg width="76" height="76" viewBox="0 0 76 76" fill="none" xmlns="http://www.w3.org/2000/svg">
<g clip-path="url(#clip0_9_57)">
<path d="M49.0423 19.0745C50.9177 20.9808 50.2479 24.9539 47.5099 27.97C44.79 30.9728 41.0712 31.898 39.1778 30.005C37.2976 28.1301 37.9541 24.1389 40.6788 21.1048C43.3854 18.0839 47.1308 17.1948 49.0423 19.0745ZM58.5445 31.9944C59.7826 34.3972 57.8047 37.6895 54.1412 39.4094C50.4198 41.0883 46.4276 40.544 45.1847 38.1725C43.9285 35.783 45.9197 32.5087 49.6097 30.825C53.3046 29.1099 57.2968 29.6543 58.5445 31.9944ZM33.6203 15.5205C36.0207 16.9293 36.4724 20.9128 34.7481 24.4364C32.9031 27.9095 29.558 29.6457 27.1708 28.2551C24.7837 26.8644 24.3272 22.9122 26.1143 19.3982C27.9013 15.8842 31.2911 14.1708 33.6203 15.5205ZM57.5417 48.046C58.1363 50.6715 55.4907 53.3969 51.6039 54.0558C47.7171 54.7148 44.0803 53.1016 43.464 50.4085C42.8477 47.7154 45.5017 45.0395 49.3668 44.3131C53.244 43.7168 56.9121 45.3348 57.5417 48.046ZM35.8432 59.3546C34.1978 60.6761 31.3617 60.7572 29.5141 59.7215C25.6535 57.5768 25.908 51.4868 23.2633 47.8909C20.6187 44.2951 14.5763 42.7804 13.8455 38.4174C13.402 35.9592 14.8341 32.9847 16.9584 31.7844C19.89 30.1294 23.7144 32.3007 27.0927 32.7676C31.5144 33.4415 37.6318 31.7267 40.303 35.3587C42.961 38.9727 39.6535 44.3567 38.8275 48.7231C38.0981 52.3502 38.6956 57.0619 35.8432 59.3546Z" fill="#EEEEEE"/>
</g>
<defs>
<clipPath id="clip0_9_57">
<rect width="53.8333" height="53.8333" fill="white" transform="translate(43.3672) rotate(53.6667)"/>
</clipPath>
</defs>
</svg>
