<svg width="48" height="48" viewBox="0 0 48 48" fill="none" xmlns="http://www.w3.org/2000/svg">
<mask id="mask0_83_6" style="mask-type:luminance" maskUnits="userSpaceOnUse" x="4" y="4" width="40" height="40">
<path d="M24 20C24.9193 20 25.8295 19.8189 26.6788 19.4672C27.5281 19.1154 28.2997 18.5998 28.9497 17.9497C29.5998 17.2997 30.1154 16.5281 30.4672 15.6788C30.8189 14.8295 31 13.9193 31 13C31 12.0807 30.8189 11.1705 30.4672 10.3212C30.1154 9.47194 29.5998 8.70026 28.9497 8.05025C28.2997 7.40024 27.5281 6.88463 26.6788 6.53284C25.8295 6.18106 24.9193 6 24 6C22.1435 6 20.363 6.7375 19.0503 8.05025C17.7375 9.36301 17 11.1435 17 13C17 14.8565 17.7375 16.637 19.0503 17.9497C20.363 19.2625 22.1435 20 24 20ZM6 40.8V42H42V40.8C42 36.32 42 34.08 41.128 32.368C40.361 30.8628 39.1372 29.639 37.632 28.872C35.92 28 33.68 28 29.2 28H18.8C14.32 28 12.08 28 10.368 28.872C8.86277 29.639 7.63898 30.8628 6.872 32.368C6 34.08 6 36.32 6 40.8Z" fill="white" stroke="white" stroke-width="4" stroke-linecap="round" stroke-linejoin="round"/>
</mask>
<g mask="url(#mask0_83_6)">
<path d="M0 0H48V48H0V0Z" fill="#FD772B"/>
</g>
</svg>
